<?xml version="1.0" encoding="UTF-8" standalone="no"?>
<svg width="156px" height="36px" viewBox="0 0 156 36" version="1.1" xmlns="http://www.w3.org/2000/svg" xmlns:xlink="http://www.w3.org/1999/xlink">
    <!-- Generator: Sketch 39.1 (31720) - http://www.bohemiancoding.com/sketch -->
    <title>streemian-logo-landscape</title>
    <desc>Created with Sketch.</desc>
    <defs>
        <filter x="-50%" y="-50%" width="200%" height="200%" filterUnits="objectBoundingBox" id="filter-1">
            <feOffset dx="0" dy="2" in="SourceAlpha" result="shadowOffsetOuter1"></feOffset>
            <feGaussianBlur stdDeviation="1" in="shadowOffsetOuter1" result="shadowBlurOuter1"></feGaussianBlur>
            <feColorMatrix values="0 0 0 0 0   0 0 0 0 0   0 0 0 0 0  0 0 0 0.3 0" type="matrix" in="shadowBlurOuter1" result="shadowMatrixOuter1"></feColorMatrix>
            <feMerge>
                <feMergeNode in="shadowMatrixOuter1"></feMergeNode>
                <feMergeNode in="SourceGraphic"></feMergeNode>
            </feMerge>
        </filter>
        <filter x="-50%" y="-50%" width="200%" height="200%" filterUnits="objectBoundingBox" id="filter-2">
            <feOffset dx="0" dy="2" in="SourceAlpha" result="shadowOffsetOuter1"></feOffset>
            <feGaussianBlur stdDeviation="1" in="shadowOffsetOuter1" result="shadowBlurOuter1"></feGaussianBlur>
            <feColorMatrix values="0 0 0 0 0   0 0 0 0 0   0 0 0 0 0  0 0 0 0.196586277 0" type="matrix" in="shadowBlurOuter1" result="shadowMatrixOuter1"></feColorMatrix>
            <feMerge>
                <feMergeNode in="shadowMatrixOuter1"></feMergeNode>
                <feMergeNode in="SourceGraphic"></feMergeNode>
            </feMerge>
        </filter>
    </defs>
    <g id="logo-concepts" stroke="none" stroke-width="1" fill="none" fill-rule="evenodd">
        <g id="streemian-logo--playground-v1-copy" transform="translate(-340.000000, -1007.000000)">
            <g id="Group-6" filter="url(#filter-1)" transform="translate(317.000000, 210.000000)">
                <g id="Group-7" transform="translate(25.000000, 797.000000)">
                    <g id="Group-10-Copy-2">
                        <g id="streemian-logo-landscape">
                            <g id="Group">
                                <g id="streemian">
                                    <g id="Page-1" filter="url(#filter-2)" transform="translate(19.328859, 2.098361)"></g>
                                    <g id="Page-1-Copy">
                                        <path d="M13.7569186,29.2609399 C13.787546,29.2609399 13.787546,29.2322623 13.8196673,29.2322623 C14.0997957,29.0573989 15.8739422,27.8921093 16.7770762,27.1625792 C17.1812081,26.8415301 17.5240852,26.172153 17.5240852,25.7636721 C17.5240852,25.7923497 17.5240852,25.8224262 17.4934578,25.8224262 C17.4307091,25.9972896 17.3067056,26.1133989 17.2133294,26.2595847 C14.78555,28.445377 11.6107616,24.8893552 10.7703764,23.9863607 C9.96061862,23.1120437 8.90285381,22.0628634 8.093096,20.8388197 C5.38518821,19.614776 4.42079953,17.6626011 4.42079953,16.2049399 C4.42079953,13.9904699 4.42079953,11.0597596 4.42079953,11.0597596 C4.42079953,11.0597596 4.86433615,8.78653552 6.32772687,7.79610929 C5.89147359,7.79610929 2.21189378,7.7086776 1.61951561,7.79610929 C1.3378932,7.85206557 1.12051357,7.91081967 0.933761307,8.02692896 C0.903133936,8.02692896 0.872506566,8.05560656 0.872506566,8.05560656 C0.685754304,8.17171585 0.529629413,8.37665574 0.468374672,8.72638251 C0.436253283,8.84389071 0.436253283,8.9012459 0.404131894,8.9886776 C0.404131894,9.10478689 0.373504523,9.19221858 0.373504523,9.33840437 C0.310755763,11.3206557 0.156124891,15.6789508 0.529629413,17.7486339 L0.529629413,17.8360656 C0.747009046,18.9139235 1.30726583,20.3715847 2.3037759,22.0614645 C3.42428947,23.9849617 5.13568719,26.1994317 7.43946309,28.4726557 C7.71959148,28.7650273 7.87422235,28.9112131 7.87422235,28.9112131 C10.0846221,30.8347104 13.133913,29.6393443 13.7569186,29.2609399 Z" id="Fill-2" fill="#4BA2F2"></path>
                                        <g id="Group-9" transform="translate(11.201342, 0.000000)" stroke-linecap="round" stroke-width="1.61593083" stroke-linejoin="round">
                                            <g id="Group-2" transform="translate(0.268456, 0.065574)">
                                                <path d="M4.10067114,1.29336456 L4.10067114,11.1948164" id="Line-Copy-3" stroke="#4BA2F2"></path>
                                                <path d="M0.836241611,3.19188134 L0.836241611,9.26713505" id="Line-Copy-2" stroke="#1A5099"></path>
                                                <path d="M7.36510067,3.19188134 L7.36510067,9.26713505" id="Line-Copy" stroke="#1A5099"></path>
                                            </g>
                                        </g>
                                        <path d="M20.2626204,6.84834973 L11.8281412,6.84834973 L11.8281412,6.84834973 C11.2985118,6.84834973 10.7703764,6.87702732 10.2713744,6.93578142 C7.53283922,7.2267541 5.32243945,9.32511475 5.16631456,11.919388 L5.16631456,12.2691148 C5.19694193,13.9589945 5.16631456,15.0382514 5.16631456,15.5628415 C5.16631456,16.5532678 5.19694193,18.0696831 7.34459294,19.5846995 C8.52785527,20.4303388 10.0218734,20.8674973 11.4225153,20.8674973 C11.5465188,20.8674973 12.7297811,20.8961749 13.4461628,20.8961749 C14.7534287,20.8961749 17.0878319,23.635235 17.0878319,23.635235 C18.4578465,25.2964372 17.9282171,26.7240219 17.2745842,27.3073661 C16.2780741,28.2404372 14.7228013,29.259541 12.9486548,30.1639344 C11.7041377,30.7759563 10.3341231,30.5423388 9.3069857,30.2226885 C10.3034958,31.0095738 10.5208754,31.1557596 11.2051357,31.5628415 C12.2322731,32.1748634 13.7262912,31.6502732 14.0997957,31.4754098 C14.4733003,31.3005464 15.4376889,30.9221421 16.5903239,30.0765027 C17.3679603,29.4931585 19.3288591,28.0655738 20.8228772,26.4918033 C21.5071374,25.7636721 22.130143,25.0054645 22.4408987,24.2773333 C22.5970236,23.9562842 22.7516545,23.4904481 22.8144033,22.9371803 L22.8144033,22.8784262 C22.8450306,22.7035628 22.8450306,22.5286995 22.8450306,22.3251585 C22.8450306,21.7131366 22.7210271,21.0423607 22.37815,20.3429071 C22.37815,20.3429071 21.6005136,18.2445464 19.6074934,16.933071 C19.327365,16.7295301 19.0166093,16.5546667 18.6737321,16.4371585 C18.3002276,16.2909727 17.8639743,16.1461858 17.3970937,16.0874317 C16.930213,16 16.4005836,15.9713224 15.7790721,15.9713224 L13.2272892,15.9713224 C12.137403,15.9713224 11.5771462,15.3005464 11.5771462,14.5437377 C11.5771462,14.3975519 11.6077736,14.1352568 11.6077736,13.9603934 C11.6077736,13.2322623 12.0440268,12.7951038 12.6042836,12.5614863 C13.0405369,12.3579454 13.5380449,12.2991913 13.9742982,12.2991913 C15.3121914,12.2991913 15.8418208,12.2404372 19.1099854,12.2404372 C19.3901138,12.2404372 19.6702422,12.2691148 19.9503706,12.2991913 C20.0131193,12.2991913 20.0437467,12.3278689 20.1064955,12.3278689 C20.3238751,12.3565464 20.5106274,12.4153005 20.729501,12.4740546 C20.8228772,12.5027322 20.8856259,12.5328087 20.9468807,12.5614863 C21.1030055,12.6202404 21.2897578,12.6775956 21.4137613,12.7363497 C21.5071374,12.7650273 21.5698862,12.8237814 21.6632623,12.8825355 C21.7872658,12.9412896 21.9433907,13.0287213 22.0367669,13.116153 C22.0367669,13.116153 24.7140473,14.456306 24.2471666,19.0027541 C24.5579224,18.536918 24.9007995,17.6912787 25.0875518,17.0205027 C25.1181792,16.933071 25.1181792,16.8743169 25.1503006,16.7868852 C25.3064254,16.1461858 25.4304289,15.6502732 25.4304289,14.7759563 L25.4304289,11.8620328 C25.4916837,9.15165027 24.527295,6.84834973 20.2626204,6.84834973 L20.2626204,6.84834973 Z" id="Fill-1" fill="#1A5099"></path>
                                        <path d="M22.6903998,14.3101202 C22.7210271,15.1256831 21.9433907,15.9125683 20.3559965,16.6120219 L20.3559965,16.6120219 C21.8193872,17.340153 22.7531485,19.351082 23.0332769,20.0218579 C23.2200292,19.9057486 23.4374088,19.7308852 23.6241611,19.5560219 C23.6547884,19.5560219 24.3405427,16.6120219 22.6903998,14.3101202 L22.6903998,14.3101202 Z" id="Fill-3" fill="#4BA2F2"></path>
                                    </g>
                                </g>
                            </g>
                            <path d="M44.8621501,15.2400005 L41.7733503,15.2400005 L38.0689506,15.2400005 L38.0689506,15.8124005 L41.1685504,15.8124005 L41.1685504,22.8 L41.7733503,22.8 L41.7733503,15.8124005 L44.8621501,15.8124005 L44.8621501,15.2400005 Z M58.6537491,19.5492002 C59.6797491,19.3008002 60.370949,18.5232003 60.370949,17.4432004 C60.370949,16.1256005 59.3557491,15.2400005 57.9517492,15.2400005 L54.6793494,15.2400005 L54.0745495,15.2400005 L54.0745495,22.8 L54.6793494,22.8 L54.6793494,19.6248002 L57.9517492,19.6248002 L58.0165492,19.6248002 L60.165749,22.8 L60.802949,22.8 L60.802949,22.746 L58.6537491,19.5492002 Z M54.6793494,15.8124005 L57.9301492,15.8124005 C58.9993491,15.8124005 59.7661491,16.4388004 59.7661491,17.4432004 C59.7661491,18.4368003 59.0101491,19.0632003 57.9301492,19.0632003 L54.6793494,19.0632003 L54.6793494,15.8124005 Z M70.6741483,22.2276 L70.6741483,19.3008002 L74.0545481,19.3008002 L74.0545481,18.7176003 L70.6741483,18.7176003 L70.6741483,15.8124005 L75.7717479,15.8124005 L75.7717479,15.2400005 L70.6741483,15.2400005 L70.0693483,15.2400005 L70.0693483,22.8 L70.1233483,22.8 L75.8257479,22.8 L75.8257479,22.2276 L70.6741483,22.2276 Z M85.8589472,22.2276 L85.8589472,19.3008002 L89.239347,19.3008002 L89.239347,18.7176003 L85.8589472,18.7176003 L85.8589472,15.8124005 L90.9565469,15.8124005 L90.9565469,15.2400005 L85.8589472,15.2400005 L85.2541473,15.2400005 L85.2541473,22.8 L85.3081473,22.8 L91.0105469,22.8 L91.0105469,22.2276 L85.8589472,22.2276 Z M107.437346,15.2400005 L104.208146,19.6032002 L100.968146,15.2400005 L100.438946,15.2400005 L100.438946,22.8 L101.043746,22.8 L101.043746,16.2984005 L104.164946,20.4996002 L104.251346,20.4996002 L107.372546,16.2984005 L107.372546,22.8 L107.977346,22.8 L107.977346,15.2400005 L107.437346,15.2400005 Z M117.999745,15.2400005 L117.999745,22.8 L118.604545,22.8 L118.604545,15.2400005 L117.999745,15.2400005 Z M131.834544,15.2400005 L131.316144,15.2400005 L127.698144,22.7352 L127.698144,22.8 L128.324544,22.8 L129.231744,20.8992001 L133.929744,20.8992001 L134.836944,22.8 L135.463344,22.8 L135.463344,22.7352 L131.834544,15.2400005 Z M129.512544,20.3268002 L131.586144,15.9960005 L133.659744,20.3268002 L129.512544,20.3268002 Z M150.529343,15.2400005 L150.529343,21.8172001 L145.096943,15.2400005 L144.567743,15.2400005 L144.567743,22.8 L145.172543,22.8 L145.172543,16.2228005 L150.594143,22.8 L151.134143,22.8 L151.134143,15.2400005 L150.529343,15.2400005 Z" id="TREEMIAN" fill="#1A5099"></path>
                        </g>
                    </g>
                </g>
            </g>
        </g>
    </g>
</svg>